<?xml version="1.0" encoding="UTF-8" standalone="no"?>
<svg
   xmlns:dc="http://purl.org/dc/elements/1.1/"
   xmlns:cc="http://creativecommons.org/ns#"
   xmlns:rdf="http://www.w3.org/1999/02/22-rdf-syntax-ns#"
   xmlns:svg="http://www.w3.org/2000/svg"
   xmlns="http://www.w3.org/2000/svg"
   xmlns:sodipodi="http://sodipodi.sourceforge.net/DTD/sodipodi-0.dtd"
   xmlns:inkscape="http://www.inkscape.org/namespaces/inkscape"
   width="64"
   height="64"
   version="1"
   id="svg12"
   sodipodi:docname="icon-missing.svg"
   inkscape:version="0.92.4 5da689c313, 2019-01-14">
  <metadata
     id="metadata18">
    <rdf:RDF>
      <cc:Work
         rdf:about="">
        <dc:format>image/svg+xml</dc:format>
        <dc:type
           rdf:resource="http://purl.org/dc/dcmitype/StillImage" />
        <dc:title />
      </cc:Work>
    </rdf:RDF>
  </metadata>
  <defs
     id="defs16" />
  <sodipodi:namedview
     pagecolor="#ffffff"
     bordercolor="#666666"
     borderopacity="1"
     objecttolerance="10"
     gridtolerance="10"
     guidetolerance="10"
     inkscape:pageopacity="0"
     inkscape:pageshadow="2"
     inkscape:window-width="1910"
     inkscape:window-height="1045"
     id="namedview14"
     showgrid="false"
     inkscape:zoom="3.6875"
     inkscape:cx="-48.813559"
     inkscape:cy="32"
     inkscape:window-x="1925"
     inkscape:window-y="30"
     inkscape:window-maximized="1"
     inkscape:current-layer="svg12" />
  <rect
     style="opacity:0.2"
     width="60"
     height="60"
     x="-63"
     y="-62"
     rx="3"
     ry="3"
     transform="matrix(0,-1,-1,0,0,0)"
     id="rect2" />
  <rect
     style="fill:#666666;fill-opacity:1"
     width="60"
     height="60"
     x="-63"
     y="-62"
     rx="3"
     ry="3"
     transform="matrix(0,-1,-1,0,0,0)"
     id="rect4" />
  <path
     style="opacity:0.2"
     d="m 31.999352,13 c -6.409,0 -11.900391,5.591 -11.900391,12 h 5.800781 c 0,-3.19 2.90961,-6.199219 6.09961,-6.199219 3.19,0 6.100906,2.610781 6.100906,5.800781 0,1.595 -0.637937,3.041938 -1.710937,4.085938 l -3.597656,3.65625 c -2.088001,2.117 -3.69075,5.017031 -3.690751,8.207031 V 41 42 h 5.898438 v -1 h -0.05859 c 0.19426,-3.614822 1.735908,-5.264641 3.651688,-7.207031 L 41.201821,31.125 c 1.653,-1.653 2.699218,-3.971438 2.699218,-6.523438 C 43.901039,18.192563 38.408352,13 31.999352,13 Z m -3,34 v 6 h 6 v -6 z"
     id="path6" />
  <path
     style="fill:#ffffff"
     d="m 31.999352,12 c -6.409,0 -11.900391,5.591 -11.900391,12 h 5.800781 c 0,-3.19 2.90961,-6.199219 6.09961,-6.199219 3.19,0 6.100906,2.610781 6.100906,5.800781 0,1.595 -0.637937,3.041938 -1.710937,4.085938 l -3.597656,3.65625 c -2.088001,2.117 -3.69075,5.017031 -3.690751,8.207031 V 40 41 h 5.898438 v -1 h -0.05859 c 0.19426,-3.614822 1.735908,-5.264641 3.651688,-7.207031 L 41.201821,30.125 c 1.653,-1.653 2.699218,-3.971438 2.699218,-6.523438 C 43.901039,17.192563 38.408352,12 31.999352,12 Z m -3,34 v 6 h 6 v -6 z"
     id="path8" />
  <path
     style="fill:#ffffff;opacity:0.1"
     d="M 5 2 C 3.3379704 2 2 3.3379704 2 5 L 2 6 C 2 4.3379704 3.3379704 3 5 3 L 59 3 C 60.66203 3 62 4.3379704 62 6 L 62 5 C 62 3.3379704 60.66203 2 59 2 L 5 2 z"
     id="path10" />
</svg>
